<?xml version="1.0" encoding="UTF-8"?>
<svg width="95px" height="52px" viewBox="0 0 95 52" version="1.1" xmlns="http://www.w3.org/2000/svg" xmlns:xlink="http://www.w3.org/1999/xlink">
    <!-- Generator: Sketch 53.1 (72631) - https://sketchapp.com -->
    <title>Group 4</title>
    <desc>Created with Sketch.</desc>
    <g id="Page-2" stroke="none" stroke-width="1" fill="none" fill-rule="evenodd">
        <g id="Main" transform="translate(-41.000000, -3465.000000)">
            <g id="Group-4" transform="translate(41.000000, 3465.000000)">
                <path d="M0.00121555795,27.3902066 C-0.0138998314,26.4231912 0.156691061,25.462233 0.503772527,24.559245 C0.806539244,23.7740726 1.26458693,23.057748 1.85062521,22.4529493 C2.41066471,21.884468 3.08450096,21.4401768 3.82818688,21.1490521 C4.5932869,20.8494945 5.4085396,20.6980202 6.23040919,20.702718 C7.10328916,20.6973727 7.96481112,20.9002638 8.74319404,21.2944868 C9.52993968,21.6917412 10.1651956,22.3344642 10.5523991,23.1249579 L10.86901,23.1249579 L10.86901,15.7002659 L12.9269808,15.7002659 L12.9269808,34.1303525 L10.86901,34.1303525 L10.86901,32.1243567 L10.5549119,32.1243567 C10.3500586,32.5199197 10.0770242,32.8764089 9.74830798,33.1775045 C9.4320624,33.4703737 9.07694312,33.7184338 8.69293834,33.914708 C8.31286665,34.1080904 7.91027473,34.2537965 7.49433997,34.3485046 C7.09641318,34.4416053 6.68936697,34.4903817 6.28066489,34.4939392 C5.44119932,34.5012244 4.60802449,34.3488966 3.8256741,34.0450977 C2.2767208,33.4502897 1.06038495,32.2173208 0.488695818,30.6624872 C0.149361993,29.7508233 -0.0159781353,28.7838339 0.00121555795,27.8114657 L0.00121555795,27.3902066 Z M2.45369357,29.7848641 C2.64929297,30.3385693 2.95918346,30.8451389 3.36332168,31.2718085 C3.75401689,31.6812429 4.22658319,32.0041668 4.75037892,32.2196415 C5.30281274,32.4450592 5.89494571,32.557609 6.49173882,32.5506308 C7.08060055,32.5552196 7.66405312,32.4382625 8.20545808,32.207104 C8.72959569,31.9821328 9.20109998,31.6508106 9.59000253,31.234196 C9.99698113,30.7978975 10.3152831,30.2869615 10.5272713,29.7296992 C10.7634069,29.1031798 10.8801605,28.4381496 10.8715228,27.7688383 L10.8715228,27.4528939 C10.8784431,26.7918805 10.7616944,26.1353824 10.5272713,25.517108 C10.3152831,24.9598456 9.99698113,24.4489096 9.59000253,24.0126111 C9.19589401,23.5925717 8.72064471,23.2565033 8.19289416,23.0246582 C7.65686433,22.7893716 7.07732982,22.668925 6.49173882,22.6711014 C5.89819239,22.6658726 5.30985411,22.7819271 4.76294284,23.0121207 C4.233071,23.2358135 3.75622501,23.5681342 3.36332168,23.9875361 C2.95918989,24.4232014 2.64573583,24.9345815 2.44112964,25.492033 C2.21455016,26.1076559 2.10298133,26.7595119 2.11195483,27.4152815 L2.11195483,27.8365406 C2.10027792,28.5009036 2.2127602,29.1616213 2.44364243,29.7848641 L2.45369357,29.7848641 Z M15.2663835,27.7588083 L15.2663835,27.1269196 C15.2595333,26.2515606 15.425166,25.3833933 15.7538638,24.5717824 C16.0639193,23.8066265 16.526396,23.1122392 17.1132804,22.5306817 C17.7020485,21.9561183 18.3966001,21.5005866 19.1586872,21.189172 C19.9661037,20.8590219 20.8316145,20.6936166 21.7041383,20.702718 C22.6660059,20.6777613 23.6201151,20.8805553 24.4883039,21.2944868 C25.2201849,21.6504187 25.8743247,22.1472342 26.4130971,22.7563562 C26.9013788,23.3111268 27.2776532,23.9548107 27.5212352,24.6520223 C27.7454172,25.259595 27.8660246,25.9003501 27.8780507,26.5476883 L27.8780507,28.2327248 L17.3243543,28.2327248 C17.3762852,29.5316071 17.7808435,30.5755607 18.5380294,31.3645858 C19.2952152,32.1536108 20.3505848,32.5489591 21.7041383,32.5506308 C22.2485138,32.5601734 22.7913032,32.4891932 23.3148334,32.3400012 C23.7366489,32.2161838 24.1337071,32.0201937 24.4883039,31.7607699 C24.8025896,31.5257448 25.0708925,31.2350578 25.2798311,30.9032067 C25.4823913,30.5773562 25.6459998,30.2289473 25.7673114,29.8651039 L27.7197452,30.3916778 C27.3717068,31.5711307 26.6550427,32.6087209 25.6743383,33.3530291 C24.6826259,34.1153075 23.342474,34.4972826 21.6538826,34.4989542 C20.771262,34.5046011 19.8964181,34.3340928 19.0807909,33.9974553 C18.3197861,33.6849779 17.6344269,33.2139305 17.070563,32.6158257 C16.4948215,31.9987194 16.0465493,31.2744733 15.751351,30.4844551 C15.4238477,29.6131934 15.2594656,28.6893224 15.2663835,27.7588083 Z M17.3771228,26.3370588 L25.8200799,26.3370588 C25.7680588,25.2964526 25.2858111,24.3239999 24.4883039,23.6515318 C24.1035558,23.332038 23.6655315,23.0825078 23.1942197,22.9143284 C22.7161362,22.7440734 22.2117343,22.6591932 21.7041383,22.6635789 C21.1508935,22.6581277 20.6011377,22.7515423 20.0808793,22.9394033 C19.1156126,23.2858422 18.315756,23.9811115 17.8394752,24.8877268 C17.6002856,25.3395863 17.4437197,25.8303719 17.3771228,26.3370588 Z M31.4411796,21.0713197 L35.4616353,33.1825195 L35.7782462,33.1825195 L39.798702,21.0713197 L42.216001,21.0713197 L37.6502709,34.1303525 L33.5770467,34.1303525 L29.0138294,21.0713197 L31.4411796,21.0713197 Z M47.9627399,21.0713197 L47.9627399,17.7488892 C47.9420059,17.2006015 48.1472343,16.6677684 48.5306293,16.2744822 C48.9160676,15.8851355 49.4475114,15.6750067 49.9955829,15.6952509 L55.1668941,15.6952509 L55.1668941,17.590917 L50.7343416,17.590917 C50.2594253,17.590917 50.0207107,17.8416665 50.0207107,18.3807778 L50.0207107,21.0663047 L55.483505,21.0663047 L55.483505,22.9619708 L50.0207107,22.9619708 L50.0207107,34.1253375 L47.9627399,34.1253375 L47.9627399,22.9669858 L43.9272075,22.9669858 L43.9272075,21.0713197 L47.9627399,21.0713197 Z M56.1468802,27.7588083 L56.1468802,27.1269196 C56.1396419,26.2512858 56.3061736,25.3828832 56.6368732,24.5717824 C56.9450608,23.8062508 57.4068142,23.1116657 57.993777,22.5306817 C58.5829814,21.9566592 59.2774213,21.5012007 60.0391839,21.189172 C60.8466004,20.8590219 61.7121112,20.6936166 62.584635,20.702718 C63.546529,20.6774745 64.5007047,20.8802826 65.3688006,21.2944868 C66.1014077,21.6504209 66.7563707,22.147213 67.2961065,22.7563562 C68.2092353,23.8127737 68.7261883,25.1529581 68.7585473,26.5476883 L68.7585473,28.2327248 L58.204851,28.2327248 C58.2567819,29.5316071 58.6613402,30.5755607 59.418526,31.3645858 C60.1757119,32.1536108 61.2310815,32.5489591 62.584635,32.5506308 C63.1290188,32.5603214 63.67183,32.4893384 64.19533,32.3400012 C64.6175607,32.2172452 65.0147973,32.0211671 65.3688006,31.7607699 C65.684348,31.5271415 65.9528876,31.236198 66.1603278,30.9032067 C66.3638876,30.5778979 66.5275533,30.2293672 66.6478081,29.8651039 L68.6002419,30.3916778 C68.2528735,31.570794 67.5371189,32.6083422 66.5573478,33.3530291 C65.562285,34.1153075 64.2221331,34.4972826 62.536892,34.4989542 C61.6550656,34.5048077 60.7810025,34.3342852 59.9663131,33.9974553 C59.2050483,33.6854568 58.5195934,33.2143437 57.9560853,32.6158257 C57.3803437,31.9987194 56.9320715,31.2744733 56.6368732,30.4844551 C56.3076556,29.6135151 56.1415683,28.6896341 56.1468802,27.7588083 Z M58.2576194,26.3370588 L66.7005765,26.3370588 C66.6734256,25.8052263 66.5347474,25.2849965 66.2935054,24.8099944 C66.0657119,24.3662069 65.7513173,23.9723361 65.3688006,23.6515318 C64.9848093,23.3322915 64.5476554,23.0827727 64.0772292,22.9143284 C63.598233,22.7442389 63.0930365,22.6593681 62.584635,22.6635789 C62.0321941,22.6579397 61.4832296,22.7513645 60.9638887,22.9394033 C60.4788394,23.1129127 60.0311854,23.3766853 59.6446767,23.7167267 C59.2675186,24.0475776 58.9541345,24.4444315 58.7199719,24.8877268 C58.4818611,25.340037 58.3253578,25.8306265 58.2576194,26.3370588 Z M72.8493611,29.2833651 C72.8992148,30.2081292 73.3171411,31.0747193 74.0102677,31.6905601 C74.6962579,32.2973738 75.6083988,32.6007807 76.7542287,32.6007807 C77.5706587,32.6386203 78.38083,32.441943 79.0886058,32.0340869 C79.6520367,31.7036945 79.9908776,31.0937202 79.9731061,30.4418277 C80.0201133,29.7897344 79.6785941,29.1709904 79.1011698,28.862106 C78.5215541,28.5461616 77.5809349,28.3438904 76.2793124,28.2552923 C74.7716415,28.1499775 73.6107349,27.7989282 72.7965926,27.2021444 C71.9824503,26.6053607 71.5778919,25.7369317 71.5829175,24.5968574 L71.5829175,24.4388852 C71.5701067,23.8737913 71.7061405,23.315238 71.9774247,22.8190436 C72.2419286,22.354477 72.6067246,21.9544744 73.0453583,21.6480435 C73.5037832,21.3270212 74.013621,21.0862061 74.5530292,20.935915 C75.1257776,20.7774113 75.7176169,20.698103 76.3119786,20.7002105 C77.0806247,20.6867595 77.8457893,20.8063829 78.5734849,21.0537673 C79.1694001,21.2618551 79.7233479,21.5743338 80.2093079,21.9765253 C80.6297993,22.3383498 80.9718236,22.7820453 81.2144218,23.2804226 C81.4420919,23.7458424 81.5979694,24.2429241 81.6767742,24.7548295 L79.7243404,25.2287461 C79.6728647,24.4581986 79.3045746,23.7431328 78.7066625,23.2528402 C78.0441018,22.7553043 77.2282098,22.5043116 76.399926,22.5432192 C76.0397601,22.5413688 75.6805787,22.5809134 75.3294797,22.6610714 C75.0092935,22.73096 74.7022606,22.8511448 74.4198516,23.0171357 C74.1667682,23.1642298 73.9502954,23.3665314 73.7866298,23.6089044 C73.6258665,23.855485 73.5435335,24.1447921 73.550428,24.4388852 C73.5289222,25.0326257 73.8384112,25.5894982 74.3545192,25.8857097 C74.8889048,26.2200423 75.8697284,26.439866 77.2969902,26.5451808 C78.8281138,26.6688839 79.9932084,27.0324706 80.792274,27.635941 C81.5913395,28.2394115 82.0042738,29.1228854 82.0310769,30.286363 L82.0310769,30.4443352 C82.0408439,31.0327346 81.9090021,31.6148849 81.6466208,32.1419092 C81.3941364,32.6402503 81.0336232,33.0762382 80.5912512,33.418224 C80.1036884,33.7896747 79.5479601,34.0622686 78.9554282,34.2206223 C77.4018624,34.6319511 75.7622965,34.5866728 74.2339055,34.0902326 C73.5616054,33.8524741 72.9426378,33.4852832 72.4121365,33.0095023 C71.9439117,32.5831254 71.5713989,32.0627053 71.3190751,31.482438 C71.0774842,30.9376163 70.9345584,30.3543824 70.8969272,29.7597891 L72.8493611,29.2833651 Z M83.4030574,21.0713197 L87.518999,21.0713197 L87.518999,15.7002659 L89.5769698,15.7002659 L89.5769698,21.0713197 L94.642744,21.0713197 L94.642744,22.9669858 L89.5769698,22.9669858 L89.5769698,31.4448256 C89.5769698,31.9713995 89.8156843,32.2346865 90.2906007,32.2346865 L94.0095223,32.2346865 L94.0095223,34.1303525 L89.5518419,34.1303525 C89.0037705,34.1505967 88.4723267,33.9404679 88.0868884,33.5511212 C87.7034934,33.157835 87.4982649,32.625002 87.518999,32.0767143 L87.518999,22.9669858 L83.4030574,22.9669858 L83.4030574,21.0713197 Z" id="Combined-Shape" fill="#4A4DEB"></path>
                <path d="M6.69400457,42.7147811 L8.70423245,42.7147811 L9.88524132,51.0396637 L10.0360084,51.0396637 L11.2170173,42.7147811 L13.2272452,42.7147811 L13.2272452,51.4910128 L12.2472591,51.4910128 L12.2472591,43.1661301 L12.096492,43.1661301 L10.9154831,51.4910128 L9.00576663,51.4910128 L7.82475775,43.1661301 L7.67399066,43.1661301 L7.67399066,51.4910128 L6.69400457,51.4910128 L6.69400457,42.7147811 Z M15.6143908,48.6826186 C15.6395187,49.3011371 15.8321637,49.7984519 16.1923313,50.174578 C16.5524989,50.5507041 17.0550509,50.7387644 17.7000022,50.7387644 C17.9931619,50.7387644 18.2486258,50.7053314 18.4664016,50.6384646 C18.6841774,50.5715977 18.8705404,50.4796571 19.0254962,50.3626401 C19.180452,50.2456231 19.30609,50.1098019 19.4024139,49.9551722 C19.4987378,49.8005426 19.5762146,49.6354675 19.6348465,49.459942 L20.5645769,49.7106915 C20.3886811,50.2874182 20.0641163,50.7575687 19.5908728,51.1211573 C19.1176293,51.4847459 18.4789695,51.6665374 17.6748743,51.6665374 C17.2309468,51.6665374 16.8226234,51.5892238 16.4498917,51.4345942 C16.0771601,51.2799645 15.7567833,51.0605609 15.4887515,50.7763768 C15.2207198,50.4921926 15.0113232,50.1536842 14.8605553,49.7608414 C14.7097875,49.3679986 14.6344047,48.9333705 14.6344047,48.4569441 L14.6344047,48.1560447 C14.6344047,47.7214101 14.7118814,47.3160359 14.8668373,46.9399098 C15.0217931,46.5637837 15.2374717,46.2399022 15.5138794,45.9682556 C15.7902871,45.6966089 16.1148519,45.483474 16.4875835,45.3288444 C16.8603151,45.1742148 17.2644506,45.0969011 17.7000022,45.0969011 C18.2109377,45.0969011 18.6527646,45.1909312 19.0254962,45.3789943 C19.3982278,45.5670573 19.7039469,45.7989983 19.9426627,46.0748241 C20.1813784,46.3506499 20.3572716,46.6515462 20.4703475,46.9775222 C20.5834234,47.3034981 20.6399605,47.6043945 20.6399605,47.8802203 L20.6399605,48.6826186 L15.6143908,48.6826186 Z M17.7000022,46.0246742 C17.4235945,46.0246742 17.1660366,46.0685549 16.9273209,46.1563177 C16.6886051,46.2440804 16.4792085,46.3673643 16.2991246,46.5261731 C16.1190408,46.6849819 15.9724632,46.8709526 15.8593873,47.0840907 C15.7463114,47.2972288 15.6730226,47.5291698 15.6395186,47.7799205 L19.6599744,47.7799205 C19.6432224,47.5124531 19.5783094,47.2700643 19.4652336,47.052747 C19.3521577,46.8354297 19.20558,46.6515486 19.0254962,46.5010982 C18.8454124,46.3506478 18.6402037,46.2336325 18.4098639,46.1500489 C18.1795242,46.0664653 17.9429059,46.0246742 17.7000022,46.0246742 Z M27.022434,45.2724258 L28.1406232,45.2724258 L26.3062903,48.2312696 L26.3062903,48.3817193 L28.2913903,51.4910128 L27.1480732,51.4910128 L25.4519435,48.7578435 L25.2257928,48.7578435 L23.529663,51.4910128 L22.3863459,51.4910128 L24.371446,48.3817193 L24.371446,48.2312696 L22.537113,45.2724258 L23.6553023,45.2724258 L25.2257928,47.8551454 L25.4519435,47.8551454 L27.022434,45.2724258 Z M32.2113347,43.4168796 C32.2113347,43.1744872 32.2971873,42.967621 32.4688951,42.7962747 C32.640603,42.6249283 32.8479056,42.5392564 33.0908094,42.5392564 C33.3337131,42.5392564 33.5410158,42.6249283 33.7127236,42.7962747 C33.8844315,42.967621 33.9702841,43.1744872 33.9702841,43.4168796 C33.9702841,43.659272 33.8844315,43.8661382 33.7127236,44.0374846 C33.5410158,44.2088309 33.3337131,44.2945028 33.0908094,44.2945028 C32.8479056,44.2945028 32.640603,44.2088309 32.4688951,44.0374846 C32.2971873,43.8661382 32.2113347,43.659272 32.2113347,43.4168796 Z M30.4272574,50.5883147 L32.6133803,50.5883147 L32.6133803,46.1751239 L30.6534081,46.1751239 L30.6534081,45.2724258 L33.5933664,45.2724258 L33.5933664,50.5883147 L35.6287221,50.5883147 L35.6287221,51.4910128 L30.4272574,51.4910128 L30.4272574,50.5883147 Z M43.7952728,49.2844174 C43.7282649,49.6271101 43.6130967,49.9447229 43.4497649,50.2372654 C43.2864331,50.5298079 43.0791304,50.7826444 42.8278507,50.9957826 C42.5765709,51.2089207 42.2834156,51.3739958 41.948376,51.4910128 C41.6133363,51.6080298 41.2406103,51.6665374 40.8301867,51.6665374 C40.3946352,51.6665374 39.9821238,51.5954924 39.5926402,51.4534004 C39.2031566,51.3113083 38.86184,51.104442 38.5686804,50.8327954 C38.2755207,50.5611488 38.0430904,50.2289091 37.8713826,49.8360662 C37.6996747,49.4432234 37.6138221,48.9918789 37.6138221,48.4820191 L37.6138221,48.3315694 C37.6138221,47.8300679 37.6996747,47.3787234 37.8713826,46.9775222 C38.0430904,46.576321 38.2755207,46.2378126 38.5686804,45.9619868 C38.86184,45.686161 39.2031566,45.4730261 39.5926402,45.3225756 C39.9821238,45.1721252 40.3946352,45.0969011 40.8301867,45.0969011 C41.2238583,45.0969011 41.5882085,45.1554087 41.9232481,45.2724258 C42.2582878,45.3894428 42.553537,45.5545178 42.8090048,45.767656 C43.0644725,45.9807941 43.2738692,46.2336306 43.437201,46.5261731 C43.6005328,46.8187157 43.711513,47.1363285 43.770145,47.4790212 L42.7901589,47.7046957 C42.7650309,47.4873784 42.7043059,47.276333 42.607982,47.0715533 C42.5116581,46.8667735 42.3818322,46.6870715 42.2185003,46.5324419 C42.0551685,46.3778123 41.8562417,46.2545283 41.6217139,46.1625864 C41.3871862,46.0706445 41.1149705,46.0246742 40.8050589,46.0246742 C40.5035232,46.0246742 40.2208377,46.0810923 39.956994,46.1939301 C39.6931503,46.3067679 39.46072,46.4655743 39.2596962,46.6703541 C39.0586724,46.8751339 38.9016249,47.1196121 38.788549,47.4037963 C38.6754731,47.6879805 38.618936,47.9972351 38.618936,48.3315694 L38.618936,48.4820191 C38.618936,48.8330701 38.6754731,49.1485934 38.788549,49.4285983 C38.9016249,49.7086033 39.0586724,49.9447234 39.2596962,50.1369656 C39.46072,50.3292078 39.6952442,50.4775665 39.9632759,50.5820459 C40.2313077,50.6865254 40.520275,50.7387644 40.8301867,50.7387644 C41.1400984,50.7387644 41.4102201,50.6907045 41.6405598,50.5945834 C41.8708996,50.4984623 42.0677324,50.3730888 42.2310643,50.2184592 C42.3943961,50.0638296 42.524222,49.8862171 42.6205459,49.6856166 C42.7168698,49.485016 42.7817828,49.2760602 42.8152867,49.0587429 L43.7952728,49.2844174 Z M51.5346502,48.4569441 C51.5346502,48.9751623 51.4487975,49.4327755 51.2770897,49.8297975 C51.1053819,50.2268195 50.8771396,50.5611488 50.5923558,50.8327954 C50.3075721,51.104442 49.9746315,51.3113083 49.5935239,51.4534004 C49.2124163,51.5954924 48.8166566,51.6665374 48.406233,51.6665374 C47.9874335,51.6665374 47.5895798,51.5954924 47.2126602,51.4534004 C46.8357406,51.3113083 46.5048939,51.104442 46.2201102,50.8327954 C45.9353265,50.5611488 45.7070842,50.2268195 45.5353763,49.8297975 C45.3636685,49.4327755 45.2778159,48.9751623 45.2778159,48.4569441 L45.2778159,48.3064944 C45.2778159,47.7966346 45.3636685,47.3432005 45.5353763,46.9461785 C45.7070842,46.5491565 45.9374205,46.2127377 46.2263922,45.9369119 C46.5153639,45.6610861 46.8483045,45.4521303 47.2252241,45.3100382 C47.6021438,45.1679461 47.9958094,45.0969011 48.406233,45.0969011 C48.8166566,45.0969011 49.2103223,45.1679461 49.5872419,45.3100382 C49.9641615,45.4521303 50.2971022,45.6610861 50.5860739,45.9369119 C50.8750456,46.2127377 51.1053819,46.5491565 51.2770897,46.9461785 C51.4487975,47.3432005 51.5346502,47.7966346 51.5346502,48.3064944 L51.5346502,48.4569441 Z M48.406233,50.7387644 C48.7077687,50.7387644 48.9862663,50.6865254 49.241734,50.5820459 C49.4972017,50.4775665 49.7212561,50.3250287 49.9139039,50.1244281 C50.1065517,49.9238276 50.2573173,49.6835284 50.3662052,49.4035234 C50.4750931,49.1235184 50.5295362,48.8079951 50.5295362,48.4569441 L50.5295362,48.3064944 C50.5295362,47.9721601 50.4750931,47.6649951 50.3662052,47.3849901 C50.2573173,47.1049851 50.1065517,46.8646859 49.9139039,46.6640853 C49.7212561,46.4634848 49.4951078,46.3067679 49.235452,46.1939301 C48.9757963,46.0810923 48.6993927,46.0246742 48.406233,46.0246742 C48.1130733,46.0246742 47.8366698,46.0810923 47.577014,46.1939301 C47.3173583,46.3067679 47.0912099,46.4634848 46.8985621,46.6640853 C46.7059143,46.8646859 46.5551487,47.1049851 46.4462608,47.3849901 C46.337373,47.6649951 46.2829298,47.9721601 46.2829298,48.3064944 L46.2829298,48.4569441 C46.2829298,48.8079951 46.337373,49.1235184 46.4462608,49.4035234 C46.5551487,49.6835284 46.7059143,49.9238276 46.8985621,50.1244281 C47.0912099,50.3250287 47.3152643,50.4775665 47.5707321,50.5820459 C47.8261998,50.6865254 48.1046973,50.7387644 48.406233,50.7387644 Z M59.2438741,45.9086727 C59.2429822,45.5154357 59.3110146,45.1250726 59.4448969,44.7552251 C59.5760088,44.393975 59.7766029,44.061775 60.0354013,43.7773022 C60.3063324,43.4859706 60.6360467,43.2552292 61.0028235,43.1002786 C61.4249077,42.9267391 61.8781655,42.8413988 62.3345994,42.8495291 C62.7895433,42.8395011 63.2420318,42.9187329 63.6663754,43.0827261 C64.0190463,43.2214763 64.3396719,43.4305107 64.6086697,43.6970624 C64.8534343,43.9436201 65.0442434,44.2381966 65.1690207,44.5621481 C65.2883165,44.876203 65.349613,45.2092259 65.3499413,45.545086 L65.3499413,45.7707605 C65.3651245,46.4003687 65.1406548,47.0123288 64.721745,47.4833795 C64.3029476,47.9547885 63.6328716,48.2891211 62.7115172,48.4863774 C62.0785587,48.5921964 61.474986,48.8296999 60.9400038,49.1834609 C60.5579704,49.4843933 60.3469672,49.952302 60.3746273,50.4372083 L60.3746273,50.8359 L65.2745577,50.8359 L65.2745577,51.8138229 L59.3192576,51.8138229 L59.3192576,50.3093261 C59.3112607,49.9505076 59.3797823,49.5940909 59.5202804,49.2637008 C59.6519507,48.969469 59.8476643,48.7082103 60.0931954,48.4989148 C60.3608161,48.2729601 60.6638905,48.0925149 60.9902595,47.9648185 C61.3779011,47.8124455 61.7770004,47.6908717 62.1838323,47.6012317 C62.9292918,47.4340654 63.4678654,47.1958534 63.799553,46.8865957 C64.1244636,46.5966638 64.307734,46.1806016 64.30211,45.7456856 L64.30211,45.6704607 C64.3019561,45.4442109 64.2637329,45.2195927 64.1890347,45.0059746 C64.1124155,44.7880663 63.9927952,44.5876978 63.8372448,44.4167134 C63.6676292,44.2344842 63.4600653,44.0915495 63.2291508,43.9979617 C62.9470913,43.8864658 62.6454341,43.8327423 62.3421378,43.8399896 C61.7770958,43.804967 61.2253718,44.020604 60.8344669,44.4292508 C60.4635313,44.8651125 60.2722371,45.4252402 60.2992437,45.9964351 L60.2992437,46.5480839 L59.2438741,46.5480839 L59.2438741,45.9086727 Z M67.6993951,43.7898397 C68.2438318,43.162966 69.0018552,42.8495291 69.9734654,42.8495291 C70.9450755,42.8495291 71.698911,43.162966 72.2349717,43.7898397 C72.7810836,44.4167134 73.053302,45.2985157 73.0516268,46.4352466 L73.0516268,48.3910926 C73.0516268,49.5612568 72.7794084,50.4514174 72.2349717,51.0615745 C71.690535,51.6717316 70.9366996,51.9768101 69.9734654,51.9768101 C69.00018,51.9768101 68.2421566,51.6717316 67.6993951,51.0615745 C67.1566336,50.4514174 66.8844152,49.5612568 66.88274,48.3910926 L66.88274,46.4352466 C66.88274,45.2985157 67.1549584,44.4167134 67.6993951,43.7898397 Z M67.9381096,46.5104715 L67.9381096,48.3284052 C67.9381096,49.1909834 68.108979,49.857977 68.4406666,50.334401 C68.8225863,50.7800659 69.3808015,51.0366539 69.9684398,51.0366539 C70.556078,51.0366539 71.1142933,50.7800659 71.496213,50.334401 C71.8329262,49.862992 71.99877,49.1959984 71.99877,48.3284052 L71.99877,46.523009 C72.0019376,46.1539987 71.9597429,45.7859934 71.8731307,45.4272337 C71.8010115,45.121498 71.6714041,44.8321971 71.4911874,44.5746855 C71.3233963,44.3417289 71.1041578,44.1504062 70.8504273,44.0155142 C70.5753954,43.8779616 70.2710008,43.8091223 69.9634142,43.8149146 C69.3590279,43.7897551 68.7833462,44.0732106 68.435641,44.567163 C68.2554243,44.8246746 68.125817,45.1139755 68.0536977,45.4197113 C67.9708755,45.7772569 67.9320596,46.1435476 67.9381096,46.5104715 Z M74.6120662,45.9086727 C74.6111743,45.5154357 74.6792068,45.1250726 74.813089,44.7552251 C74.9442009,44.393975 75.144795,44.061775 75.4035934,43.7773022 C75.6745246,43.4859706 76.0042389,43.2552292 76.3710156,43.1002786 C76.7930999,42.9267391 77.2463576,42.8413988 77.7027916,42.8495291 C78.1577354,42.8395011 78.6102239,42.9187329 79.0345675,43.0827261 C79.3872385,43.2214763 79.7078641,43.4305107 79.9768618,43.6970624 C80.2216264,43.9436201 80.4124355,44.2381966 80.5372129,44.5621481 C80.6565086,44.876203 80.7178051,45.2092259 80.7181334,45.545086 L80.7181334,45.7707605 C80.7333166,46.4003687 80.5088469,47.0123288 80.0899372,47.4833795 C79.6711397,47.9547885 79.0010637,48.2891211 78.0797093,48.4863774 C77.4511185,48.5938797 76.8519887,48.8313189 76.3207599,49.1834609 C75.9387264,49.4843933 75.7277233,49.952302 75.7553833,50.4372083 L75.7553833,50.8359 L80.6427498,50.8359 L80.6427498,51.8138229 L74.6874497,51.8138229 L74.6874497,50.3093261 C74.6794528,49.9505076 74.7479744,49.5940909 74.8884725,49.2637008 C75.020064,48.9700923 75.2148052,48.7089864 75.4588747,48.4989148 C75.730701,48.2678497 76.0388923,48.0831547 76.3710156,47.952281 C76.7586571,47.7999081 77.1577564,47.6783343 77.5645884,47.5886942 C78.3100479,47.4215279 78.8477839,47.1833159 79.1777963,46.8740582 C79.5027069,46.5841263 79.6859772,46.1680641 79.6803532,45.7331481 L79.6803532,45.6579233 C79.6801993,45.4316734 79.6419761,45.2070552 79.5672779,44.9934372 C79.4906588,44.7755289 79.3710384,44.5751603 79.215488,44.4041759 C79.0458724,44.2219468 78.8383086,44.0790121 78.6073941,43.9854243 C78.3253346,43.8739283 78.0236774,43.8202048 77.7203811,43.8274521 C77.155339,43.7924295 76.603615,44.0080665 76.2127101,44.4167134 C75.8417746,44.8525751 75.6504804,45.4127027 75.677487,45.9838976 L75.677487,46.5355464 L74.6120662,46.5355464 L74.6120662,45.9086727 Z M83.0776383,43.7898397 C83.6237503,43.162966 84.3817737,42.8495291 85.3517086,42.8495291 C86.3216436,42.8495291 87.079667,43.162966 87.6257789,43.7898397 C88.1702156,44.4167134 88.442434,45.2985157 88.442434,46.4352466 L88.442434,48.3910926 C88.442434,49.5612568 88.1702156,50.4514174 87.6257789,51.0615745 C87.0813422,51.6717316 86.3233188,51.9768101 85.3517086,51.9768101 C84.3784233,51.9768101 83.6203999,51.6717316 83.0776383,51.0615745 C82.5348768,50.4514174 82.2626585,49.5612568 82.2609833,48.3910926 L82.2609833,46.4352466 C82.2609833,45.2985157 82.5332016,44.4167134 83.0776383,43.7898397 Z M83.3163529,46.5104715 L83.3163529,48.3284052 C83.3163529,49.1909834 83.4838719,49.8596487 83.8189099,50.334401 C84.2008194,50.7791879 84.7584634,51.0351892 85.3454267,51.0351892 C85.93239,51.0351892 86.4900339,50.7791879 86.8719435,50.334401 C87.2069814,49.862992 87.3745004,49.1943267 87.3745004,48.3284052 L87.3745004,46.523009 C87.3776681,46.1539987 87.3354734,45.7859934 87.2488612,45.4272337 C87.1769796,45.1209776 87.0464313,44.831481 86.8644051,44.5746855 C86.6978515,44.3406097 86.478322,44.1490332 86.223645,44.0155142 C85.3932309,43.5687053 84.3593883,43.8083528 83.8113715,44.5746855 C83.6311548,44.8321971 83.5015474,45.121498 83.4294282,45.4272337 C83.3480587,45.7824348 83.3100906,46.1461613 83.3163529,46.5104715 Z" id="Combined-Shape" fill="#4A4DEB"></path>
                <g id="Group-3" transform="translate(27.522288, -0.000000)">
                    <path d="M4.11588676,4.21171421 L6.92518022,2.59438008 C7.3693995,2.35654654 7.64860705,1.8962138 7.65374691,1.39318371 C7.65888677,0.890153625 7.38914345,0.424235413 6.94987628,0.177412559 C6.51060912,-0.0694102953 5.97151089,-0.0579776297 5.54314855,0.207245059 L0.690961012,3.00310173 L4.11588676,4.21171421 Z" id="Path" fill="#EA4335" fill-rule="nonzero"></path>
                    <path d="M6.2316516,8.37164804 C6.8570875,8.37216689 7.40491726,7.9534758 7.5673874,7.35078225 C7.72985753,6.7480887 7.46646696,6.11163402 6.92518022,5.7989584 L2.07047989,3.00310173 C1.64315967,2.75719319 1.11683207,2.75745701 0.689759633,3.00379383 C0.262687192,3.25013064 -0.000247630198,3.70511602 1.7500498e-07,4.19736137 C0.000247980208,4.68960672 0.263640765,5.14432825 0.690961012,5.39023676 L5.54314855,8.18358593 C5.751954,8.3059079 5.98952589,8.3707998 6.2316516,8.37164804 L6.2316516,8.37164804 Z" id="Path" fill="#4285F4" fill-rule="nonzero"></path>
                    <path d="M11.0587113,8.37164804 C11.3016251,8.37076541 11.5399985,8.30589134 11.7497271,8.18358593 L16.6019147,5.38772926 L13.2197063,4.15153434 L10.3676955,5.7989584 C9.82681268,6.11140047 9.56336199,6.74718088 9.72516211,7.34957157 C9.88696224,7.95196226 10.4337424,8.37103274 11.0587113,8.37164804 Z" id="Path" fill="#FBBC04" fill-rule="nonzero"></path>
                    <path d="M15.908386,5.57579137 C16.5338219,5.57631021 17.0816517,5.15761913 17.2441218,4.55492558 C17.406592,3.95223203 17.1432014,3.31577735 16.6019147,3.00310173 L11.7497271,0.207245059 C11.3213648,-0.0579776297 10.7822666,-0.0694102953 10.3429994,0.177412559 C9.90373223,0.424235413 9.63398891,0.890153625 9.63912876,1.39318371 C9.64426862,1.8962138 9.92347617,2.35654654 10.3676955,2.59438008 L15.219883,5.39023676 C15.4290726,5.51134989 15.666538,5.57534786 15.908386,5.57579137 L15.908386,5.57579137 Z" id="Path" fill="#0F9D58" fill-rule="nonzero"></path>
                    <path d="M22.7808526,6.96745097 C22.3021962,6.69295417 21.9050731,6.29666709 21.6299971,5.81901836 C21.0605795,4.81655175 21.0605795,3.58932421 21.6299971,2.5868576 C22.1926897,1.61108381 23.2382805,1.01321874 24.3664198,1.02218086 C24.7974465,1.02468499 25.2239763,1.10981135 25.6228123,1.27293034 C25.9960273,1.41769855 26.3299728,1.64787633 26.5977728,1.94493894 L26.0801391,2.46399035 C25.87846,2.22131248 25.6193831,2.03258452 25.3263037,1.914849 C25.0184657,1.78615431 24.6876038,1.72131564 24.3538559,1.7242794 C23.9315364,1.72133977 23.5157704,1.82851985 23.1477192,2.03520875 C22.7759652,2.24115318 22.4668876,2.54351546 22.2531678,2.91032442 C21.8042661,3.7227694 21.8042661,4.70818151 22.2531678,5.52062648 C22.467357,5.88880295 22.7784588,6.19144522 23.1527448,6.39574216 C23.8410682,6.76361912 24.6574983,6.80770721 25.3815849,6.51610191 C25.64838,6.39550259 25.8897186,6.22530435 26.092703,6.01460295 C26.2555128,5.84448378 26.3835383,5.64433263 26.4696208,5.42534168 C26.564695,5.18475733 26.6223183,4.93107211 26.6404901,4.67309325 L24.3789838,4.67309325 L24.3789838,4.00860714 L27.3114037,4.00860714 C27.3382443,4.1542265 27.3525356,4.30187256 27.354121,4.44992622 C27.353954,4.82155144 27.2937109,5.19071632 27.1757133,5.54319394 C27.0578627,5.89260869 26.861955,6.2107173 26.6027984,6.4734745 C26.0246817,7.08737932 25.2073467,7.41966664 24.3639071,7.3836951 C23.8084296,7.38859889 23.2617845,7.24486548 22.7808526,6.96745097 L22.7808526,6.96745097 Z" id="Path" fill="#4A4DEB"></path>
                    <path d="M28.2587236,1.16260057 L30.1005949,1.16260057 C30.6700867,1.14867595 31.233538,1.28168489 31.7364178,1.54875476 C32.191066,1.7958745 32.5638631,2.16962914 32.8093769,2.62447002 C33.3119744,3.61878912 33.3119744,4.79210183 32.8093769,5.78642093 C32.5652925,6.24231883 32.1921319,6.61643795 31.7364178,6.86213619 C31.2337727,7.13007656 30.6703085,7.26395227 30.1005949,7.25079788 L28.2587236,7.25079788 L28.2587236,1.16260057 Z M30.1005949,6.56123681 C30.7417529,6.61644433 31.3745162,6.38562399 31.8288401,5.93080499 C32.283164,5.47598598 32.5124475,4.84382017 32.4550743,4.20419173 C32.4943391,3.56272087 32.2639656,2.93393484 31.8193397,2.46900534 C31.3549805,2.0388009 30.7358916,1.81448051 30.1031076,1.84714664 L28.97738,1.84714664 L28.97738,6.55872932 L30.1005949,6.56123681 Z" id="Shape" fill="#4A4DEB"></path>
                    <path d="M35.3573408,6.96745097 C34.8814522,6.69190155 34.4870211,6.29570559 34.2140237,5.81901836 C33.6475938,4.81576758 33.6475938,3.59010838 34.2140237,2.5868576 C34.7767162,1.61108381 35.822307,1.01321874 36.9504464,1.02218086 C37.381435,1.02505687 37.8078946,1.11016924 38.2068388,1.27293034 C38.5797465,1.41827615 38.9135667,1.64836755 39.1817993,1.94493894 L38.6616528,2.46399035 C38.464786,2.22270279 38.2109294,2.03400362 37.9228941,1.914849 C37.6150561,1.78615431 37.2841943,1.72131564 36.9504464,1.7242794 C36.5289629,1.72166078 36.1140891,1.82883416 35.7468224,2.03520875 C35.3742952,2.24099307 35.0643652,2.54333999 34.8497582,2.91032442 C34.404159,3.72361459 34.404159,4.70733632 34.8497582,5.52062648 C35.0646549,5.88825215 35.375583,6.1907255 35.7493352,6.39574216 C36.4376586,6.76361912 37.2540887,6.80770721 37.9781754,6.51610191 C38.2453426,6.39615162 38.4867979,6.22587102 38.6892935,6.01460295 C38.8447812,5.84221402 38.9666456,5.64236904 39.0486217,5.42534168 C39.1428738,5.18463264 39.19965,4.93094578 39.2169783,4.67309325 L36.9554719,4.67309325 L36.9554719,4.00860714 L39.8853791,4.00860714 C39.9134675,4.15404948 39.9277698,4.30180798 39.9280964,4.44992622 C39.9291843,4.82165195 39.8689083,5.1910183 39.7496887,5.54319394 C39.6337895,5.89294024 39.4385937,6.21128908 39.1792865,6.4734745 C38.6002001,7.08749375 37.7820678,7.41973232 36.9378824,7.3836951 C36.3833018,7.38778509 35.8376771,7.24409191 35.3573408,6.96745097 L35.3573408,6.96745097 Z" id="Path" fill="#4A4DEB"></path>
                </g>
            </g>
        </g>
    </g>
</svg>